<svg width="60" height="58" fill="none" xmlns="http://www.w3.org/2000/svg"><rect opacity=".05" y=".47" width="59.034" height="57.383" rx="10" fill="#DD63F1"/><path fill-rule="evenodd" clip-rule="evenodd" d="M29.753 36.506c-2.084 0-3.779-1.647-3.779-3.672 0-2.026 1.695-3.673 3.779-3.673 2.084 0 3.778 1.647 3.778 3.673 0 2.025-1.694 3.672-3.778 3.672zm0-9.181c-3.126 0-5.668 2.47-5.668 5.509 0 3.038 2.542 5.509 5.668 5.509 3.125 0 5.667-2.471 5.667-5.51 0-3.037-2.542-5.508-5.667-5.508z" fill="#DD63F1"/><path fill-rule="evenodd" clip-rule="evenodd" d="M35.27 24.292a10.491 10.491 0 0 0-3.9-1.423L35 17.226h5.243l-4.971 7.066zm2.984 8.542c0 4.556-3.814 8.263-8.501 8.263-4.687 0-8.502-3.707-8.502-8.263 0-4.557 3.815-8.263 8.502-8.263 4.687 0 8.5 3.706 8.5 8.263zm-18.99-15.608h5.242l3.63 5.643a10.496 10.496 0 0 0-3.901 1.423l-4.972-7.066zm23.603-1.347a.946.946 0 0 0-.835-.49h-7.557a.95.95 0 0 0-.8.432l-3.922 6.1-3.922-6.1a.95.95 0 0 0-.801-.432h-7.557a.947.947 0 0 0-.835.49.897.897 0 0 0 .056.946l6.039 8.585c-2.066 1.847-3.37 4.487-3.37 7.424 0 5.569 4.66 10.1 10.39 10.1s10.39-4.531 10.39-10.1c0-2.937-1.305-5.577-3.37-7.424l6.04-8.585a.895.895 0 0 0 .054-.946z" fill="#DD63F1"/></svg>