<svg width="17" height="17" viewBox="0 0 17 17" fill="none" xmlns="http://www.w3.org/2000/svg">
<path fill-rule="evenodd" clip-rule="evenodd" d="M16.9945 8.50005C16.9945 13.1883 13.1915 16.9887 8.5002 16.9887C3.80891 16.9887 0.00585938 13.1883 0.00585938 8.50005C0.00585938 3.81187 3.80891 0.0113525 8.5002 0.0113525C13.1915 0.0113525 16.9945 3.81187 16.9945 8.50005ZM6.09315 11.8781H4.44464C4.09823 11.8781 3.92712 11.8781 3.8228 11.8114C3.71011 11.7384 3.64125 11.6175 3.6329 11.484C3.62663 11.361 3.7122 11.2108 3.88331 10.9105L7.95369 3.74067C8.12689 3.43621 8.21453 3.28398 8.32513 3.22768C8.44407 3.1672 8.58597 3.1672 8.70492 3.22768C8.81551 3.28398 8.90316 3.43621 9.07635 3.74067L9.91314 5.20041L9.9174 5.20786C10.1045 5.53449 10.1993 5.70012 10.2408 5.87397C10.2867 6.06374 10.2867 6.26393 10.2408 6.4537C10.199 6.62886 10.1051 6.7957 9.91522 7.12727L7.77714 10.9043L7.77161 10.9139C7.58331 11.2433 7.48788 11.4102 7.35563 11.5361C7.21164 11.6738 7.03844 11.7738 6.84855 11.8302C6.67535 11.8781 6.48129 11.8781 6.09315 11.8781ZM10.2562 11.8781H12.6183C12.9668 11.8781 13.1421 11.8781 13.2465 11.8094C13.3592 11.7364 13.4301 11.6133 13.4364 11.4799C13.4424 11.3609 13.3587 11.2165 13.1947 10.9337C13.1891 10.9241 13.1834 10.9143 13.1776 10.9043L11.9944 8.88153L11.981 8.85876C11.8147 8.57778 11.7308 8.43589 11.623 8.38105C11.5041 8.32057 11.3642 8.32057 11.2453 8.38105C11.1368 8.43735 11.0492 8.58541 10.876 8.88361L9.69695 10.9064L9.69291 10.9134C9.52032 11.2111 9.43406 11.3599 9.44028 11.4819C9.44863 11.6154 9.51749 11.7384 9.63017 11.8114C9.73243 11.8781 9.90771 11.8781 10.2562 11.8781Z" fill="#E84142"/>
</svg>
