<svg width="24" height="18" viewBox="0 0 24 18" fill="none" xmlns="http://www.w3.org/2000/svg">
<path d="M10.8016 14.4158C10.8939 14.4159 10.9853 14.4343 11.0706 14.4697C11.1558 14.5052 11.2332 14.5571 11.2984 14.6224C11.3636 14.6878 11.4153 14.7654 11.4505 14.8507C11.4857 14.9361 11.5037 15.0275 11.5036 15.1198C11.5035 15.2121 11.4852 15.3035 11.4497 15.3888C11.4143 15.474 11.3624 15.5514 11.297 15.6166C11.2316 15.6818 11.1541 15.7335 11.0687 15.7687C10.9834 15.8039 10.8919 15.8219 10.7996 15.8218C10.6132 15.8216 10.4345 15.7472 10.3028 15.6152C10.1712 15.4832 10.0974 15.3043 10.0976 15.1178C10.0979 14.9314 10.1722 14.7527 10.3042 14.621C10.4363 14.4894 10.6152 14.4156 10.8016 14.4158ZM21.8256 10.0688C21.7333 10.0688 21.6419 10.0505 21.5566 10.0151C21.4714 9.97972 21.3939 9.92789 21.3287 9.86256C21.2634 9.79723 21.2117 9.7197 21.1764 9.63438C21.1412 9.54906 21.1231 9.45764 21.1231 9.36532C21.1232 9.273 21.1414 9.1816 21.1768 9.09633C21.2122 9.01106 21.264 8.9336 21.3294 8.86837C21.3947 8.80313 21.4722 8.75141 21.5576 8.71614C21.6429 8.68087 21.7343 8.66275 21.8266 8.66282C22.0131 8.66295 22.1918 8.73714 22.3236 8.86907C22.4553 9.00101 22.5292 9.17987 22.5291 9.36632C22.529 9.55276 22.4548 9.73152 22.3229 9.86327C22.1909 9.99501 22.0121 10.0689 21.8256 10.0688ZM21.8256 7.19282C21.2492 7.19335 20.6965 7.42256 20.2889 7.83015C19.8814 8.23774 19.6521 8.7904 19.6516 9.36682C19.6516 9.59982 19.6906 9.83182 19.7666 10.0578L12.5856 13.8808C12.3865 13.5917 12.1201 13.3553 11.8093 13.1921C11.4985 13.0289 11.1527 12.9437 10.8016 12.9438C9.97262 12.9438 9.21762 13.4188 8.85162 14.1598L2.40062 10.7578C1.71862 10.3998 1.20862 9.27782 1.26262 8.25582C1.29062 7.72282 1.47462 7.30882 1.75562 7.14882C1.93362 7.04882 2.14762 7.05682 2.37562 7.17582L2.41762 7.19882C4.12762 8.09882 9.72162 11.0458 9.95762 11.1548C10.3206 11.3238 10.5226 11.3918 11.1426 11.0978L22.7066 5.08382C22.8766 5.01982 23.0746 4.85682 23.0746 4.60982C23.0746 4.26782 22.7206 4.13282 22.7196 4.13282C22.0616 3.81782 21.0506 3.34482 20.0646 2.88282C17.9566 1.89582 15.5676 0.777817 14.5186 0.227817C13.6126 -0.246183 12.8836 0.153817 12.7536 0.233817L12.5016 0.358817C7.77962 2.69382 1.45962 5.82382 1.09962 6.04282C0.456615 6.43482 0.0576154 7.21582 0.00561541 8.18482C-0.0743846 9.72182 0.708615 11.3248 1.82962 11.9118L8.65162 15.4298C8.72677 15.9466 8.98534 16.4191 9.38008 16.7609C9.77483 17.1028 10.2794 17.2913 10.8016 17.2918C11.3719 17.2909 11.9191 17.0661 12.3255 16.6659C12.7318 16.2657 12.9649 15.7221 12.9746 15.1518L20.4886 11.0788C20.8686 11.3768 21.3416 11.5398 21.8256 11.5398C22.402 11.5393 22.9547 11.3101 23.3623 10.9025C23.7699 10.4949 23.9991 9.94223 23.9996 9.36582C23.9991 8.7894 23.7699 8.23674 23.3623 7.82915C22.9547 7.42156 22.402 7.19235 21.8256 7.19182" fill="white"/>
</svg>
