<svg width="23" height="23" fill="none" xmlns="http://www.w3.org/2000/svg"><path clip-rule="evenodd" d="M6.765.25H3.348C1.498.25 0 1.76 0 3.62v3.447c0 1.859 1.498 3.37 3.348 3.37h3.417c1.85 0 3.348-1.511 3.348-3.37V3.62c0-1.86-1.497-3.37-3.348-3.37zM3.348 1.82h3.417c.98 0 1.778.804 1.778 1.8v3.447c0 .995-.798 1.8-1.778 1.8H3.348a1.79 1.79 0 0 1-1.778-1.8V3.62c0-.996.797-1.8 1.778-1.8zM19.153.25h-3.418c-1.85 0-3.348 1.51-3.348 3.37v3.447c0 1.859 1.498 3.37 3.348 3.37h3.418c1.85 0 3.347-1.511 3.347-3.37V3.62c0-1.86-1.497-3.37-3.347-3.37zm-3.418 1.57h3.418c.98 0 1.777.804 1.777 1.8v3.447c0 .995-.798 1.8-1.777 1.8h-3.418a1.79 1.79 0 0 1-1.778-1.8V3.62c0-.996.797-1.8 1.778-1.8zM3.348 12.563h3.417c1.85 0 3.348 1.51 3.348 3.371v3.446c0 1.86-1.497 3.37-3.348 3.37H3.348C1.498 22.75 0 21.24 0 19.38v-3.446c0-1.86 1.497-3.371 3.348-3.371zm3.417 1.57H3.348a1.79 1.79 0 0 0-1.778 1.801v3.446c0 .996.797 1.8 1.778 1.8h3.417a1.79 1.79 0 0 0 1.778-1.8v-3.446a1.79 1.79 0 0 0-1.778-1.801zm12.388-1.57h-3.418c-1.85 0-3.348 1.51-3.348 3.371v3.446c0 1.86 1.497 3.37 3.348 3.37h3.418c1.85 0 3.347-1.51 3.347-3.37v-3.446c0-1.86-1.497-3.371-3.347-3.371zm-3.418 1.57h3.418c.98 0 1.777.804 1.777 1.801v3.446c0 .996-.797 1.8-1.777 1.8h-3.418a1.79 1.79 0 0 1-1.778-1.8v-3.446a1.79 1.79 0 0 1 1.778-1.801z"/></svg>