<svg width="23" height="23" fill="none" xmlns="http://www.w3.org/2000/svg"><path clip-rule="evenodd" d="M11.315.25a11.272 11.272 0 0 0-9.672 5.4 11.235 11.235 0 0 0-.363 11.058l.207.403c.079.148.094.308.048.456-.295.78-.555 1.623-.762 2.48l-.022.184c0 .861.46 1.453 1.372 1.433l.151-.019a19.914 19.914 0 0 0 2.443-.705.763.763 0 0 1 .435.047l.768.435a.02.02 0 0 0 .011.014l.052.018a11.28 11.28 0 0 0 12.692-1.508 11.239 11.239 0 0 0 3.113-12.38A11.266 11.266 0 0 0 11.315.25zm-.327 1.574.316-.005a9.699 9.699 0 0 1 9.014 6.297 9.669 9.669 0 0 1-2.68 10.651l-.247.21a9.712 9.712 0 0 1-10.38 1.238l-.323-.162.014.002-.02-.006-.476-.272a7.546 7.546 0 0 0-.416-.223 2.361 2.361 0 0 0-1.547-.11l-.471.162c-.311.103-.618.196-.923.28l-.444.116-.106.414a19.94 19.94 0 0 1 .72-2.34 2.17 2.17 0 0 0-.142-1.693l-.203-.397a9.668 9.668 0 0 1 .31-9.519 9.7 9.7 0 0 1 8.004-4.643zM5.034 11.5a1.284 1.284 0 1 1 2.567.001 1.284 1.284 0 0 1-2.567 0zm4.991 0a1.284 1.284 0 1 1 2.568.001 1.284 1.284 0 0 1-2.568 0zm6.276-1.283a1.284 1.284 0 1 0 0 2.567 1.284 1.284 0 0 0 0-2.567z"/></svg>