<svg width="25" height="16" viewBox="0 0 25 16" fill="none" xmlns="http://www.w3.org/2000/svg">
<path d="M1.11339 1.25332C1.75792 1.60449 10.711 6.64805 11.045 6.82969C11.379 7.01133 11.7189 7.09609 12.2462 7.09609C12.7735 7.09609 13.1134 7.01133 13.4474 6.82969C13.7814 6.64805 22.7345 1.60449 23.379 1.25332C23.6193 1.12617 24.0235 0.896094 24.1114 0.635742C24.2638 0.175586 24.0997 0 23.4493 0H12.2462H1.04308C0.39269 0 0.228627 0.181641 0.380971 0.635742C0.468862 0.902148 0.873159 1.12617 1.11339 1.25332Z" fill="white"/>
<path d="M23.8887 1.52579C23.4082 1.78009 19.0957 4.95274 16.2422 6.85997L21.0586 12.4606C21.1758 12.5816 21.2285 12.727 21.1641 12.7996C21.0938 12.8662 20.9414 12.8299 20.8184 12.7149L15.041 7.67735C14.168 8.2586 13.5527 8.65821 13.4473 8.71876C12.9961 8.95489 12.6797 8.98517 12.2461 8.98517C11.8125 8.98517 11.4961 8.95489 11.0449 8.71876C10.9336 8.65821 10.3242 8.2586 9.45117 7.67735L3.67383 12.7149C3.55664 12.8359 3.39844 12.8723 3.32813 12.7996C3.25781 12.733 3.31055 12.5816 3.42773 12.4606L8.23828 6.85997C5.38477 4.95274 1.02539 1.78009 0.544922 1.52579C0.0292968 1.25333 0 1.57423 0 1.82247C0 2.07071 0 14.2346 0 14.2346C0 14.7977 0.802734 15.5 1.37695 15.5H12.2461H23.1152C23.6895 15.5 24.375 14.7916 24.375 14.2346C24.375 14.2346 24.375 2.06466 24.375 1.82247C24.375 1.56817 24.4102 1.25333 23.8887 1.52579Z" fill="white"/>
</svg>
