<svg width="24" height="23" fill="none" xmlns="http://www.w3.org/2000/svg"><path clip-rule="evenodd" d="M8.699.25H6.445C2.1.25.083 2.697.083 7.257v8.486c0 4.348 2.758 7.007 7.267 7.007h8.779c4.5 0 7.257-2.66 7.257-7.007l.03-5.401c0-4.554-1.97-6.783-6.382-6.783h-3.19a1.758 1.758 0 0 1-1.383-.668l-1.028-1.322A3.46 3.46 0 0 0 8.699.25zM6.445 1.883h2.254c.543 0 1.055.247 1.381.667l1.03 1.322a3.472 3.472 0 0 0 2.732 1.32h3.192c3.413 0 4.692 1.446 4.692 5.145l-.031 5.402c0 3.448-2 5.378-5.566 5.378H7.35c-3.576 0-5.576-1.929-5.576-5.374V7.257c0-3.73 1.357-5.374 4.67-5.374zm11.538 12.479c0-.451-.379-.817-.846-.817H6.321l-.114.008a.827.827 0 0 0-.731.809c0 .45.378.816.845.816h10.816l.115-.007a.827.827 0 0 0 .73-.81z"/></svg>