<svg width="22" height="23" xmlns="http://www.w3.org/2000/svg"><path fill-rule="evenodd" clip-rule="evenodd" d="M20.632 6.617a3.374 3.374 0 0 1 1.295 2.395l.01.226v9.123c0 2.35-1.856 4.263-4.184 4.387h-2.239a2.06 2.06 0 0 1-2.014-1.9l-.01-.159v-3.216c0-.35-.26-.641-.608-.699l-.102-.01H9.776a.714.714 0 0 0-.697.607l-.011.102v3.206c0 .067-.012.145-.023.202l-.01.023-.013.078a2.05 2.05 0 0 1-1.9 1.756l-.147.01H4.962a4.405 4.405 0 0 1-4.4-4.162V9.238a3.338 3.338 0 0 1 1.126-2.465l7.009-5.636a4.088 4.088 0 0 1 4.904-.135l.18.135 6.85 5.48zm-.27 11.924.012-.18V9.248a1.823 1.823 0 0 0-.562-1.27l-.147-.125-6.862-5.49c-.855-.686-2.07-.719-2.97-.124l-.17.124-6.84 5.514c-.393.291-.629.73-.685 1.191l-.012.18v9.113a2.822 2.822 0 0 0 2.656 2.812h2.193a.485.485 0 0 0 .494-.404l.024-.202.011-.058v-3.036c0-1.204.923-2.182 2.104-2.274h3.172c1.203 0 2.182.924 2.273 2.105v3.385c0 .237.169.44.394.484h2.091a2.812 2.812 0 0 0 2.824-2.632z"/></svg>