<svg width="14" height="18" viewBox="0 0 14 18" fill="none" xmlns="http://www.w3.org/2000/svg">
<rect x="4.78004" y="14.8583" width="4.83323" height="1.15222" fill="#8E93C2"/>
<rect x="5.79152" y="16.6975" width="2.81029" height="1.15222" fill="#8E93C2"/>
<rect x="7.00597" y="8.25031" width="0.381372" height="5.92058" fill="#8E93C2"/>
<path d="M5.14458 5.67987C4.7534 5.67987 4.43518 5.99813 4.43518 6.38927C4.43518 6.7804 4.7534 7.09866 5.14458 7.09866H5.85397V6.38927C5.85394 5.99806 5.53575 5.67987 5.14458 5.67987Z" fill="#8E93C2"/>
<path d="M9.24826 5.67987C8.85709 5.67987 8.53886 5.99813 8.53886 6.38927V7.09866H9.24826C9.63943 7.09866 9.95766 6.78044 9.95766 6.38927C9.95766 5.99813 9.63947 5.67987 9.24826 5.67987Z" fill="#8E93C2"/>
<path d="M7.19665 0.182373C3.74874 0.182373 0.943665 2.98745 0.943665 6.43536C0.943665 7.64438 1.28953 8.81773 1.94382 9.82854C2.51322 10.7082 3.28966 11.4277 4.20396 11.9265V14.1713H5.85374V8.25091H5.14434C4.11783 8.25091 3.28272 7.41577 3.28272 6.38929C3.28272 5.36278 4.11783 4.52767 5.14434 4.52767C6.17086 4.52767 7.00597 5.36278 7.00597 6.38929V7.09869H7.38734V6.38929C7.38734 5.36278 8.22244 4.52767 9.24896 4.52767C10.2755 4.52767 11.1106 5.36278 11.1106 6.38929C11.1106 7.41577 10.2755 8.25091 9.24896 8.25091H8.53956V14.1713H10.1893V11.9265C11.1036 11.4277 11.8801 10.7082 12.4495 9.82854C13.1038 8.81773 13.4496 7.64442 13.4496 6.43536C13.4496 2.98745 10.6446 0.182373 7.19665 0.182373Z" fill="#8E93C2"/>
</svg>
