<svg width="60" height="58" fill="none" xmlns="http://www.w3.org/2000/svg"><rect opacity=".05" y=".47" width="59.034" height="57.383" rx="10.196" fill="#FFC700"/><path fill-rule="evenodd" clip-rule="evenodd" d="M18.3 22.079h-2.81c-.62 0-1.123.488-1.123 1.092 0 .604.502 1.092 1.124 1.092h1.123v1.092c0 .604.502 1.092 1.124 1.092.62 0 1.123-.488 1.123-1.092v-1.148c1.28-.253 2.247-1.355 2.247-2.674 0-1.506-1.26-2.73-2.809-2.73h-1.123a.555.555 0 0 1-.562-.546c0-.3.252-.547.562-.547h2.809c.62 0 1.123-.488 1.123-1.092 0-.603-.503-1.092-1.123-1.092H18.86v-1.092c0-.604-.503-1.092-1.123-1.092-.622 0-1.124.488-1.124 1.092v1.148c-1.28.253-2.247 1.355-2.247 2.675 0 1.506 1.26 2.73 2.809 2.73h1.123c.31 0 .562.246.562.546 0 .3-.253.546-.562.546zM36.837 38.46H19.984c-.619 0-1.123-.489-1.123-1.092V32.36l1.452 1.412c.44.427 1.15.427 1.589 0a1.07 1.07 0 0 0 0-1.544l-3.37-3.276a1.145 1.145 0 0 0-1.59 0l-3.37 3.276a1.07 1.07 0 0 0 0 1.544c.44.427 1.15.427 1.589 0l1.452-1.412v5.008c0 1.807 1.513 3.277 3.371 3.277h16.853c.62 0 1.124-.488 1.124-1.092 0-.604-.504-1.092-1.124-1.092zM41.892 37.368h2.81c.62 0 1.123-.488 1.123-1.092 0-.604-.503-1.092-1.124-1.092h-1.123v-1.092c0-.604-.503-1.092-1.124-1.092-.62 0-1.123.488-1.123 1.092v1.148c-1.28.253-2.248 1.355-2.248 2.674 0 1.506 1.261 2.73 2.81 2.73h1.123c.31 0 .562.247.562.547 0 .3-.252.546-.562.546h-2.809c-.62 0-1.123.488-1.123 1.092 0 .604.503 1.092 1.123 1.092h1.124v1.092c0 .604.503 1.092 1.123 1.092.621 0 1.124-.488 1.124-1.092v-1.148c1.28-.253 2.247-1.355 2.247-2.674 0-1.506-1.26-2.73-2.81-2.73h-1.123a.556.556 0 0 1-.561-.547c0-.3.252-.546.561-.546zM46.62 25.675a1.145 1.145 0 0 0-1.589 0l-1.453 1.412V22.08c0-1.806-1.512-3.276-3.37-3.276H23.355c-.62 0-1.124.488-1.124 1.092 0 .604.504 1.092 1.124 1.092h16.853c.619 0 1.123.49 1.123 1.092v5.008l-1.452-1.412a1.145 1.145 0 0 0-1.589 0 1.07 1.07 0 0 0 0 1.544l3.37 3.277c.44.427 1.15.427 1.59 0l3.37-3.276a1.07 1.07 0 0 0 0-1.545z" fill="#D2B343"/></svg>