<svg width="60" height="58" fill="none" xmlns="http://www.w3.org/2000/svg"><rect opacity=".05" y=".47" width="59.034" height="57.383" rx="9.839" fill="#FA5F1C"/><path fill-rule="evenodd" clip-rule="evenodd" d="m39.681 27.832-3.449-3.038-4.628 11.922 8.077-8.884zm-8.237 3.325 3.312-8.53.003-.006.84-2.166-4.155-1.563v12.265zm-1.91 4.921h-6.373l5.561 2.092.813-2.092zm-1.181 4.214-5.948-2.238 4.433 3.904 1.515-1.666zm-9.92-6.322h10.842V15H18.433v18.97zm23.583-5.522-14.28 15.706a1.09 1.09 0 0 1-.814.356c-.267 0-.527-.097-.727-.273l-9.574-8.434c-.005-.003-.005-.008-.011-.013-.005-.005-.013-.008-.017-.013-.064-.061-.105-.137-.153-.211-.024-.038-.059-.07-.077-.11-.002-.005-.006-.007-.007-.011-.024-.052-.025-.112-.039-.167l-.005-.02c-.015-.066-.042-.127-.045-.194v-.025l-.003-.015V13.945c0-.582.486-1.054 1.084-1.054H30.36c.6 0 1.084.472 1.084 1.054v2.686l5.94 2.234c.557.209.834.815.624 1.356l-.952 2.452 4.875 4.296c.44.388.477 1.046.085 1.479zM22.77 22.904c0 .29.243.527.542.527h1.084c1.495 0 2.71 1.181 2.71 2.635 0 1.273-.932 2.336-2.168 2.58v1.108c0 .583-.484 1.054-1.084 1.054-.598 0-1.084-.47-1.084-1.053V28.7h-1.084c-.599 0-1.085-.472-1.085-1.054 0-.583.486-1.054 1.085-1.054h2.711a.535.535 0 0 0 .541-.527.536.536 0 0 0-.542-.527h-1.084c-1.494 0-2.71-1.182-2.71-2.635 0-1.273.933-2.337 2.168-2.581v-1.108c0-.583.486-1.054 1.084-1.054.6 0 1.084.471 1.084 1.054v1.054h1.085c.6 0 1.084.471 1.084 1.054 0 .583-.485 1.054-1.084 1.054h-2.711c-.3 0-.542.237-.542.527z" fill="#FA5F1C"/></svg>