<svg width="60" height="58" fill="none" xmlns="http://www.w3.org/2000/svg"><rect opacity=".05" y=".47" width="59.034" height="57.383" rx="9.839" fill="#427A0A"/><path fill-rule="evenodd" clip-rule="evenodd" d="M18.2 42.402h2.169v-10.54H18.2v10.54zm3.253 2.108h-4.337c-.6 0-1.084-.471-1.084-1.054V30.808c0-.582.484-1.053 1.084-1.053h4.337c.6 0 1.084.47 1.084 1.053v12.648c0 .583-.484 1.054-1.084 1.054zM27.959 42.402h2.168V23.43H27.96V42.4zm3.252 2.108h-4.337c-.6 0-1.084-.471-1.084-1.054v-21.08c0-.582.485-1.053 1.084-1.053h4.337c.6 0 1.085.471 1.085 1.054v21.079c0 .583-.485 1.054-1.085 1.054zM37.717 42.402h2.168V14.999h-2.168v27.403zm3.253 2.108h-4.337c-.6 0-1.085-.471-1.085-1.054v-29.51c0-.583.485-1.055 1.085-1.055h4.337c.6 0 1.084.472 1.084 1.054v29.51c0 .584-.485 1.055-1.084 1.055z" fill="#427A0A"/></svg>