<svg width="198" height="218" viewBox="0 0 198 218" fill="none" xmlns="http://www.w3.org/2000/svg">
<g filter="url(#filter0_dddddd_1_482)">
<path opacity="0.1" d="M125 28C125 42.3594 113.359 54 99 54C84.6406 54 73 42.3594 73 28C73 13.6406 84.6406 2 99 2C113.359 2 125 13.6406 125 28ZM78.2 28C78.2 39.4875 87.5125 48.8 99 48.8C110.488 48.8 119.8 39.4875 119.8 28C119.8 16.5125 110.488 7.2 99 7.2C87.5125 7.2 78.2 16.5125 78.2 28Z" fill="white"/>
<path d="M106.216 27.946L91.7848 28.0556M91.7848 28.0556L98.7427 20.5819M91.7848 28.0556L99.2584 35.4197" stroke="#B0BCD0" stroke-width="1.3585" stroke-linecap="round" stroke-linejoin="round"/>
<path d="M125 28C125 42.3594 113.359 54 99 54C84.6406 54 73 42.3594 73 28C73 13.6406 84.6406 2 99 2C113.359 2 125 13.6406 125 28ZM78.2 28C78.2 39.4875 87.5125 48.8 99 48.8C110.488 48.8 119.8 39.4875 119.8 28C119.8 16.5125 110.488 7.2 99 7.2C87.5125 7.2 78.2 16.5125 78.2 28Z" fill="#51459E"/>
</g>
<defs>
<filter id="filter0_dddddd_1_482" x="0.546494" y="0.825985" width="196.907" height="216.194" filterUnits="userSpaceOnUse" color-interpolation-filters="sRGB">
<feFlood flood-opacity="0" result="BackgroundImageFix"/>
<feColorMatrix in="SourceAlpha" type="matrix" values="0 0 0 0 0 0 0 0 0 0 0 0 0 0 0 0 0 0 127 0" result="hardAlpha"/>
<feOffset dy="1.67716"/>
<feGaussianBlur stdDeviation="1.42559"/>
<feColorMatrix type="matrix" values="0 0 0 0 0.290196 0 0 0 0 0.168627 0 0 0 0 0.862745 0 0 0 0.0601852 0"/>
<feBlend mode="normal" in2="BackgroundImageFix" result="effect1_dropShadow_1_482"/>
<feColorMatrix in="SourceAlpha" type="matrix" values="0 0 0 0 0 0 0 0 0 0 0 0 0 0 0 0 0 0 127 0" result="hardAlpha"/>
<feOffset dy="7.37952"/>
<feGaussianBlur stdDeviation="2.95181"/>
<feColorMatrix type="matrix" values="0 0 0 0 0.290196 0 0 0 0 0.168627 0 0 0 0 0.862745 0 0 0 0.0981481 0"/>
<feBlend mode="normal" in2="effect1_dropShadow_1_482" result="effect2_dropShadow_1_482"/>
<feColorMatrix in="SourceAlpha" type="matrix" values="0 0 0 0 0 0 0 0 0 0 0 0 0 0 0 0 0 0 127 0" result="hardAlpha"/>
<feOffset dy="18.1134"/>
<feGaussianBlur stdDeviation="5.88685"/>
<feColorMatrix type="matrix" values="0 0 0 0 0.290196 0 0 0 0 0.168627 0 0 0 0 0.862745 0 0 0 0.125 0"/>
<feBlend mode="normal" in2="effect2_dropShadow_1_482" result="effect3_dropShadow_1_482"/>
<feColorMatrix in="SourceAlpha" type="matrix" values="0 0 0 0 0 0 0 0 0 0 0 0 0 0 0 0 0 0 127 0" result="hardAlpha"/>
<feOffset dy="34.885"/>
<feGaussianBlur stdDeviation="11.5389"/>
<feColorMatrix type="matrix" values="0 0 0 0 0.290196 0 0 0 0 0.168627 0 0 0 0 0.862745 0 0 0 0.151852 0"/>
<feBlend mode="normal" in2="effect3_dropShadow_1_482" result="effect4_dropShadow_1_482"/>
<feColorMatrix in="SourceAlpha" type="matrix" values="0 0 0 0 0 0 0 0 0 0 0 0 0 0 0 0 0 0 127 0" result="hardAlpha"/>
<feOffset dy="58.7008"/>
<feGaussianBlur stdDeviation="21.2161"/>
<feColorMatrix type="matrix" values="0 0 0 0 0.290196 0 0 0 0 0.168627 0 0 0 0 0.862745 0 0 0 0.189815 0"/>
<feBlend mode="normal" in2="effect4_dropShadow_1_482" result="effect5_dropShadow_1_482"/>
<feColorMatrix in="SourceAlpha" type="matrix" values="0 0 0 0 0 0 0 0 0 0 0 0 0 0 0 0 0 0 127 0" result="hardAlpha"/>
<feOffset dy="90.5669"/>
<feGaussianBlur stdDeviation="36.2268"/>
<feColorMatrix type="matrix" values="0 0 0 0 0.290196 0 0 0 0 0.168627 0 0 0 0 0.862745 0 0 0 0.25 0"/>
<feBlend mode="normal" in2="effect5_dropShadow_1_482" result="effect6_dropShadow_1_482"/>
<feBlend mode="normal" in="SourceGraphic" in2="effect6_dropShadow_1_482" result="shape"/>
</filter>
</defs>
</svg>
