<svg width="100" height="100" viewBox="0 0 100 100" fill="none" xmlns="http://www.w3.org/2000/svg">
<g filter="url(#filter0_d_1_700)">
<rect x="30" y="25" width="40" height="40" rx="10" fill="#FFAF2A"/>
</g>
<path d="M56.0002 37H44.0002C43.6322 37 43.3335 37.298 43.3335 37.6667V53L46.0002 51L48.0002 53L50.0002 51L52.0002 53L54.0002 51L56.6668 53V37.6667C56.6668 37.298 56.3682 37 56.0002 37ZM50.6668 47.6667H46.0002V46.3333H50.6668V47.6667ZM50.6668 45H46.0002V43.6667H50.6668V45ZM50.6668 42.3333H46.0002V41H50.6668V42.3333ZM54.0002 47.6667H52.0002V46.3333H54.0002V47.6667ZM54.0002 45H52.0002V43.6667H54.0002V45ZM54.0002 42.3333H52.0002V41H54.0002V42.3333Z" fill="white"/>
<defs>
<filter id="filter0_d_1_700" x="0" y="0" width="100" height="100" filterUnits="userSpaceOnUse" color-interpolation-filters="sRGB">
<feFlood flood-opacity="0" result="BackgroundImageFix"/>
<feColorMatrix in="SourceAlpha" type="matrix" values="0 0 0 0 0 0 0 0 0 0 0 0 0 0 0 0 0 0 127 0" result="hardAlpha"/>
<feOffset dy="5"/>
<feGaussianBlur stdDeviation="15"/>
<feColorMatrix type="matrix" values="0 0 0 0 0 0 0 0 0 0 0 0 0 0 0 0 0 0 0.05 0"/>
<feBlend mode="normal" in2="BackgroundImageFix" result="effect1_dropShadow_1_700"/>
<feBlend mode="normal" in="SourceGraphic" in2="effect1_dropShadow_1_700" result="shape"/>
</filter>
</defs>
</svg>
